<mxfile host="app.diagrams.net" modified="2023-07-04T07:08:22.515Z" agent="Mozilla/5.0 (Macintosh; Intel Mac OS X 10_15_7) AppleWebKit/537.36 (KHTML, like Gecko) Chrome/114.0.0.0 Safari/537.36" etag="dwp2MWrATP3pUd7K1SHP" version="21.5.2" type="github">
  <diagram name="第 1 页" id="1iiH6AfHibalSoDmp_bI">
    <mxGraphModel dx="1434" dy="771" grid="1" gridSize="10" guides="1" tooltips="1" connect="1" arrows="1" fold="1" page="1" pageScale="1" pageWidth="827" pageHeight="1169" math="0" shadow="0">
      <root>
        <mxCell id="0" />
        <mxCell id="1" parent="0" />
        <mxCell id="5TREA_Vvd7gGs71__wx2-1" value="" style="rounded=0;whiteSpace=wrap;html=1;" vertex="1" parent="1">
          <mxGeometry x="170" y="200" width="440" height="240" as="geometry" />
        </mxCell>
        <mxCell id="5TREA_Vvd7gGs71__wx2-2" value="容器1&lt;br&gt;应用程序" style="rounded=0;whiteSpace=wrap;html=1;fillColor=#dae8fc;strokeColor=#6c8ebf;" vertex="1" parent="1">
          <mxGeometry x="191" y="240" width="120" height="60" as="geometry" />
        </mxCell>
        <mxCell id="5TREA_Vvd7gGs71__wx2-3" value="容器1&lt;br&gt;应用程序" style="rounded=0;whiteSpace=wrap;html=1;fillColor=#d5e8d4;strokeColor=#82b366;" vertex="1" parent="1">
          <mxGeometry x="330" y="240" width="120" height="60" as="geometry" />
        </mxCell>
        <mxCell id="5TREA_Vvd7gGs71__wx2-4" value="容器1&lt;br&gt;应用程序" style="rounded=0;whiteSpace=wrap;html=1;fillColor=#ffe6cc;strokeColor=#d79b00;" vertex="1" parent="1">
          <mxGeometry x="470" y="240" width="120" height="60" as="geometry" />
        </mxCell>
        <mxCell id="5TREA_Vvd7gGs71__wx2-6" value="应用容器化" style="text;html=1;strokeColor=none;fillColor=none;align=center;verticalAlign=middle;whiteSpace=wrap;rounded=0;" vertex="1" parent="1">
          <mxGeometry x="335" y="200" width="110" height="30" as="geometry" />
        </mxCell>
        <mxCell id="5TREA_Vvd7gGs71__wx2-8" value="docker" style="rounded=0;whiteSpace=wrap;html=1;fillColor=#fff2cc;strokeColor=#d6b656;" vertex="1" parent="1">
          <mxGeometry x="191" y="310" width="399" height="30" as="geometry" />
        </mxCell>
        <mxCell id="5TREA_Vvd7gGs71__wx2-9" value="操作系统" style="rounded=0;whiteSpace=wrap;html=1;fillColor=#f8cecc;strokeColor=#b85450;" vertex="1" parent="1">
          <mxGeometry x="191" y="350" width="399" height="30" as="geometry" />
        </mxCell>
        <mxCell id="5TREA_Vvd7gGs71__wx2-10" value="基础设施" style="rounded=0;whiteSpace=wrap;html=1;fillColor=#e1d5e7;strokeColor=#9673a6;" vertex="1" parent="1">
          <mxGeometry x="191" y="390" width="399" height="30" as="geometry" />
        </mxCell>
      </root>
    </mxGraphModel>
  </diagram>
</mxfile>
